<?xml version="1.0" encoding="utf-8"?>
<!-- Generator: Adobe Illustrator 27.7.0, SVG Export Plug-In . SVG Version: 6.00 Build 0)  -->
<svg version="1.1" id="Layer_1" xmlns="http://www.w3.org/2000/svg" xmlns:xlink="http://www.w3.org/1999/xlink" x="0px" y="0px"
	 viewBox="0 0 1251.5 863.6" style="enable-background:new 0 0 1251.5 863.6;" xml:space="preserve">
<style type="text/css">
	.st0{fill:#FFFFFF;}
	.st1{fill:#90A8EB;}
	.st2{fill:#9CB8FF;}
	.st3{fill:#231F20;}
	.st4{fill:#FF0000;}
	.st5{font-family:'ComicSansMS-Bold';}
	.st6{font-size:72px;}
</style>
<g>
	<g>
		<path class="st0" d="M1227.6,505.7h-12.3c0.8-2.5,1.2-5.1,1.2-7.9c0-14.5-11.7-26.2-26.2-26.2c-3.5,0-6.9,0.7-9.9,2
			c-3.6-23.1-23.4-40.7-47.5-40.7c-19,0-35.3,11-43.2,27c-4.5-3.4-10-5.4-16-5.4c-14,0-25.5,10.9-26.4,24.6
			c-2.9-1.2-6.1-1.9-9.4-1.9c-13.4,0-24.2,10.8-24.2,24.2c0,1.5,0.2,3,0.4,4.4h-13c-12.1,0-21.9,9.8-21.9,21.9
			c0,12.1,9.8,21.9,21.9,21.9h226.5c12.1,0,21.9-9.8,21.9-21.9C1249.4,515.5,1239.7,505.7,1227.6,505.7z"/>
		<path d="M1227.6,551.1h-226.5c-13,0-23.5-10.6-23.5-23.5s10.6-23.5,23.5-23.5h11c-0.1-0.9-0.2-1.8-0.2-2.7
			c0-14.3,11.6-25.9,25.9-25.9c2.8,0,5.4,0.4,8,1.3c2-13.6,13.9-24,27.8-24c5.5,0,10.8,1.6,15.4,4.6c8.7-16.2,25.3-26.2,43.8-26.2
			c24,0,44.2,16.8,48.8,40.1c2.8-0.9,5.7-1.4,8.7-1.4c15.4,0,27.9,12.5,27.9,27.9c0,2.1-0.2,4.2-0.7,6.2h10.1
			c13,0,23.5,10.6,23.5,23.5S1240.6,551.1,1227.6,551.1z M1001.1,507.3c-11.1,0-20.2,9.1-20.2,20.2c0,11.1,9.1,20.2,20.2,20.2h226.5
			c11.1,0,20.2-9.1,20.2-20.2c0-11.1-9.1-20.2-20.2-20.2h-12.3c-0.5,0-1-0.3-1.3-0.7s-0.4-1-0.2-1.5c0.7-2.4,1.1-4.9,1.1-7.4
			c0-13.6-11-24.6-24.6-24.6c-3.2,0-6.3,0.6-9.3,1.8c-0.5,0.2-1,0.2-1.4-0.1s-0.7-0.7-0.8-1.2c-3.5-22.8-22.8-39.3-45.8-39.3
			c-17.8,0-33.8,10-41.7,26.1c-0.2,0.4-0.6,0.8-1.1,0.9s-1,0-1.4-0.3c-4.4-3.3-9.6-5.1-15-5.1c-13,0-23.9,10.1-24.8,23.1
			c0,0.5-0.3,1-0.8,1.3s-1,0.3-1.5,0.1c-2.8-1.2-5.7-1.8-8.8-1.8c-12.4,0-22.5,10.1-22.5,22.5c0,1.3,0.1,2.7,0.4,4.1
			c0.1,0.5,0,1-0.4,1.4c-0.3,0.4-0.8,0.6-1.3,0.6h-13V507.3z"/>
	</g>
	<g>
		<g>
			<path class="st1" d="M707.1,281.3l0.8-0.5l141.4,52.6c-12.8-25.4-29.8-48.3-50-68c-45.5-44.1-107.5-71.3-175.8-71.5
				C656.7,217.2,685.2,246.9,707.1,281.3z"/>
			<path d="M849.3,335c-0.2,0-0.4,0-0.6-0.1l-140.6-52.3l-0.1,0.1c-0.8,0.5-1.8,0.2-2.2-0.5c-21.9-34.3-49.9-63.6-83.3-86.9
				c-0.6-0.4-0.8-1.2-0.6-1.9s0.9-1,1.6-1.2c66.4,0.2,129.2,25.8,177,72c20.4,19.8,37.3,42.7,50.2,68c0.3,0.3,0.4,0.7,0.4,1.1
				C851,334.3,850.3,335.1,849.3,335L849.3,335z M707.9,279.2c0.2,0,0.4,0,0.6,0.1l137.3,51c-12.5-23.6-28.5-45.1-47.8-63.7
				c-45.8-44.4-105.8-69.5-169.4-71c31.4,22.8,58,50.9,79.1,83.6C707.8,279.2,707.9,279.2,707.9,279.2z"/>
		</g>
		<g>
			<path class="st2" d="M707.1,281.3c4.9,7.6,9.4,15.5,13.6,23.5c22.3,42.7,34.9,91.3,34.9,142.8h120.8c0-41.1-9.8-79.9-27.2-114.2
				l-141.4-52.6L707.1,281.3z"/>
			<path d="M876.4,449.3H755.7c-0.9,0-1.7-0.7-1.7-1.7c0-50-11.7-97.8-34.7-142c-4.1-7.9-8.6-15.7-13.5-23.4
				c-0.2-0.4-0.3-0.8-0.2-1.3s0.4-0.8,0.8-1l0.8-0.5c0.4-0.3,0.9-0.3,1.4-0.1L850,331.9c0.4,0.1,0.7,0.4,0.9,0.8
				c18.1,35.9,27.3,74.6,27.3,115C878.1,448.5,877.4,449.3,876.4,449.3z M757.3,446h117.5c-0.2-39.1-9.2-76.5-26.7-111.2
				l-137.6-51.2c4.2,6.7,8.1,13.6,11.7,20.5C745.2,348.2,757.1,396,757.3,446z"/>
		</g>
		<g>
			<path class="st2" d="M538.3,281.3c21.9-34.3,50.4-64.1,83.7-87.4c-68.3,0.2-130.3,27.4-175.8,71.5c-20.2,19.6-37.2,42.6-50,68
				l141.4-52.6L538.3,281.3z"/>
			<path d="M396.1,335c-0.5,0-0.9-0.2-1.2-0.6c-0.5-0.5-0.6-1.2-0.2-1.9c12.9-25.5,29.8-48.5,50.4-68.4c47.7-46.2,110.6-71.8,177-72
				l0,0c0.7,0,1.4,0.5,1.6,1.2c0.2,0.7,0,1.4-0.6,1.9c-33.4,23.4-61.4,52.6-83.3,86.9c-0.5,0.8-1.5,1-2.2,0.5l-0.1-0.1l-140.6,52.3
				C396.5,335,396.3,335,396.1,335z M616.7,195.6c-63.6,1.5-123.5,26.6-169.4,71c-19.2,18.7-35.3,40.1-47.8,63.7l137.4-51
				c0.2-0.1,0.5-0.1,0.7-0.1C558.7,246.5,585.3,218.4,616.7,195.6z"/>
		</g>
		<g>
			<path class="st1" d="M524.7,304.8c4.2-8.1,8.7-15.9,13.6-23.5l-0.8-0.5l-141.4,52.6c-17.4,34.3-27.2,73.1-27.2,114.2h120.8
				C489.7,396.1,502.4,347.5,524.7,304.8z"/>
			<path d="M489.7,449.3H369c-0.9,0-1.7-0.7-1.7-1.7c0-40.4,9.2-79.1,27.3-115c0.2-0.4,0.5-0.7,0.9-0.8l141.4-52.5
				c0.5-0.2,1-0.1,1.4,0.1l0.8,0.5c0.4,0.2,0.7,0.6,0.8,1s0,0.9-0.2,1.3c-4.9,7.7-9.4,15.5-13.5,23.4c-23,44.2-34.7,92-34.7,142
				C491.4,448.5,490.6,449.3,489.7,449.3z M370.6,446h117.5c0.3-49.9,12.1-97.7,35.1-141.9c3.6-6.9,7.5-13.8,11.7-20.5l-137.6,51.1
				C379.8,369.5,370.9,406.9,370.6,446z"/>
		</g>
		<g>
			<path class="st2" d="M623.4,193.9c-0.2-0.2-0.5-0.3-0.7-0.5c-0.2,0.2-0.5,0.3-0.7,0.5c0.2,0,0.5,0,0.7,0S623.2,193.9,623.4,193.9
				z"/>
			<path d="M623.4,195.5h-1H622c-0.7,0-1.4-0.5-1.6-1.2c-0.2-0.7,0-1.4,0.6-1.9l0.7-0.5c0.6-0.4,1.4-0.4,1.9,0l0.7,0.5
				c0.6,0.4,0.8,1.2,0.6,1.9C624.8,195.1,624.1,195.5,623.4,195.5z"/>
		</g>
		<g>
			<path class="st1" d="M538.3,281.3l84.4,50.2v-10.7V193.9c-0.2,0-0.5,0-0.7,0C588.7,217.2,560.2,246.9,538.3,281.3z"/>
			<path d="M622.7,333.1c-0.3,0-0.6-0.1-0.8-0.2l-84.4-50.2c-0.4-0.2-0.7-0.6-0.8-1s0-0.9,0.2-1.3c22.1-34.7,50.4-64.2,84.2-87.9
				c0.3-0.2,0.6-0.3,1-0.3h0.7c0.9,0,1.7,0.7,1.7,1.7v137.6c0,0.6-0.3,1.1-0.8,1.4C623.3,333,623,333.1,622.7,333.1z M540.6,280.7
				l80.4,47.8v-132C589,219.4,561.9,247.7,540.6,280.7z"/>
		</g>
		<g>
			<path class="st2" d="M622.7,331.4l-84.4-50.1c-4.9,7.6-9.4,15.5-13.6,23.5c-22.3,42.7-34.9,91.3-34.9,142.8h133L622.7,331.4
				L622.7,331.4z"/>
			<path d="M622.7,449.3h-133c-0.9,0-1.7-0.7-1.7-1.7c0-50.6,11.8-98.9,35.1-143.6c4.1-8,8.7-15.9,13.7-23.7c0.5-0.8,1.5-1,2.2-0.5
				l84.4,50.2c0.5,0.3,0.8,0.8,0.8,1.4v116.2C624.3,448.5,623.6,449.3,622.7,449.3z M491.4,446H621V332.4l-82.2-48.9
				c-4.6,7.2-8.8,14.6-12.7,22C503.3,349.3,491.6,396.5,491.4,446z"/>
		</g>
		<g>
			<path class="st1" d="M707.1,281.3l-84.4,50.2l0,0v116.2h133c0-51.5-12.6-100.1-34.9-142.8C716.5,296.7,712,288.9,707.1,281.3z"/>
			<path d="M755.7,449.3h-133c-0.9,0-1.7-0.7-1.7-1.7V331.4c0-0.6,0.3-1.1,0.8-1.4l84.4-50.2c0.8-0.5,1.8-0.2,2.2,0.5
				c4.9,7.7,9.5,15.7,13.7,23.6c23.3,44.7,35.1,93,35.1,143.6C757.3,448.5,756.6,449.3,755.7,449.3z M624.3,446H754
				c-0.3-49.4-11.9-96.7-34.7-140.4c-3.9-7.4-8.1-14.8-12.7-22l-82.3,48.8V446z"/>
		</g>
		<g>
			<path class="st2" d="M622.7,320.7v10.7l0,0l84.4-50.2c-21.9-34.3-50.4-64.1-83.7-87.4c-0.2,0-0.5,0-0.7,0V320.7z"/>
			<path d="M622.7,333.1c-0.3,0-0.6-0.1-0.8-0.2c-0.5-0.3-0.8-0.8-0.8-1.4V193.9c0-0.9,0.7-1.7,1.7-1.7h0.4c0.3,0,1,0.1,1.2,0.3
				c33.7,23.6,62,53.2,84.2,87.9c0.2,0.4,0.3,0.8,0.2,1.3c-0.1,0.4-0.4,0.8-0.8,1l-84.4,50.2C623.3,333,623,333.1,622.7,333.1z
				 M624.3,196.6v132l80.5-47.8C683.5,247.7,656.4,219.4,624.3,196.6z"/>
		</g>
		<g>
			<path class="st1" d="M755.7,447.6c0,51.5-12.6,100.1-34.9,142.8c-4.2,8.1-8.7,15.9-13.6,23.5l0.8,0.5l141.3-52.6
				c17.4-34.3,27.2-73.1,27.2-114.2H755.7z"/>
			<path d="M707.9,616.1c-0.3,0-0.6-0.1-0.8-0.2l-0.8-0.5c-0.4-0.2-0.7-0.6-0.8-1s0-0.9,0.2-1.3c4.9-7.7,9.4-15.5,13.5-23.4
				c23.1-44.2,34.7-92,34.7-142c0-0.9,0.7-1.7,1.7-1.7h120.8c0.9,0,1.7,0.7,1.7,1.7c0,40.4-9.2,79.1-27.3,115
				c-0.2,0.4-0.5,0.7-0.9,0.8l-141.4,52.6C708.3,616,708.1,616.1,707.9,616.1z M757.3,449.3c-0.3,50-12.1,97.7-35.1,141.9
				c-3.6,6.9-7.5,13.8-11.7,20.5l137.6-51.2c17.5-34.8,26.4-72.2,26.7-111.2H757.3z"/>
		</g>
		<g>
			<path class="st2" d="M707.1,613.9c-21.9,34.3-50.4,64.1-83.7,87.4c68.4-0.2,130.3-27.4,175.8-71.6c20.2-19.6,37.2-42.5,50-67.9
				l-141.4,52.6L707.1,613.9z"/>
			<path d="M623.4,703c-0.7,0-1.4-0.5-1.6-1.2c-0.2-0.7,0-1.4,0.6-1.9c33.4-23.4,61.4-52.6,83.3-86.9c0.5-0.8,1.5-1,2.2-0.5l0.1,0.1
				l140.7-52.3c0.6-0.2,1.4-0.1,1.8,0.5c0.5,0.5,0.5,1.2,0.2,1.9c-12.9,25.5-29.8,48.5-50.4,68.4C752.7,677.2,689.8,702.8,623.4,703
				L623.4,703z M707.7,616.1c-21.1,32.7-47.6,60.8-79.1,83.5c63.6-1.5,123.6-26.6,169.4-71c19.2-18.6,35.3-40.1,47.8-63.7L708.5,616
				C708.2,616.1,708,616.1,707.7,616.1z"/>
		</g>
		<g>
			<path class="st1" d="M538.3,613.9l-0.8,0.5l-141.3-52.6c12.8,25.4,29.8,48.3,50,67.9c45.5,44.1,107.5,71.4,175.8,71.6
				C588.7,678,560.2,648.3,538.3,613.9z"/>
			<path d="M622,703L622,703c-66.4-0.2-129.3-25.8-177-72c-20.5-19.9-37.5-42.9-50.4-68.4c-0.3-0.6-0.2-1.3,0.2-1.9
				c0.5-0.5,1.2-0.7,1.8-0.4l140.7,52.3l0.1-0.1c0.8-0.5,1.8-0.2,2.2,0.5c21.9,34.3,49.9,63.6,83.3,86.9c0.6,0.4,0.8,1.2,0.6,1.9
				C623.3,702.5,622.7,703,622,703z M399.6,564.9c12.5,23.6,28.5,45,47.7,63.7c45.8,44.4,105.8,69.5,169.4,71
				c-31.4-22.8-58-50.9-79-83.5c-0.3,0-0.5,0-0.8-0.1L399.6,564.9z"/>
		</g>
		<g>
			<path class="st2" d="M538.3,613.9c-4.9-7.6-9.4-15.5-13.6-23.5c-22.3-42.7-34.9-91.3-34.9-142.8H369c0,41.1,9.8,79.9,27.2,114.2
				l141.3,52.6L538.3,613.9z"/>
			<path d="M537.5,616.1c-0.2,0-0.4,0-0.6-0.1l-141.3-52.6c-0.4-0.1-0.7-0.4-0.9-0.8c-18.2-35.9-27.4-74.6-27.4-115
				c0-0.9,0.7-1.7,1.7-1.7h120.8c0.9,0,1.7,0.7,1.7,1.7c0,50,11.7,97.8,34.7,142c4.1,7.9,8.7,15.8,13.5,23.4
				c0.2,0.4,0.3,0.8,0.2,1.3c-0.1,0.4-0.4,0.8-0.8,1l-0.8,0.5C538.1,616,537.8,616.1,537.5,616.1z M397.3,560.5l137.6,51.2
				c-4.2-6.7-8.1-13.6-11.7-20.5c-23-44.2-34.9-92-35.1-141.9H370.6C370.9,488.4,379.8,525.8,397.3,560.5z"/>
		</g>
		<g>
			<path class="st2" d="M622,701.3c0.2,0.2,0.5,0.3,0.7,0.5c0.2-0.2,0.5-0.3,0.7-0.5c-0.2,0-0.5,0-0.7,0S622.2,701.3,622,701.3z"/>
			<path d="M622.7,703.5c-0.3,0-0.7-0.1-0.9-0.3l-0.7-0.5c-0.6-0.4-0.9-1.2-0.7-1.9s0.9-1.2,1.6-1.2h1h0.4c0.7,0,1.4,0.5,1.6,1.2
				c0.2,0.7,0,1.4-0.6,1.9l-0.7,0.5C623.3,703.4,623,703.5,622.7,703.5z"/>
		</g>
		<g>
			<path class="st1" d="M489.7,447.6c0,51.5,12.7,100.1,34.9,142.8c4.2,8.1,8.7,15.9,13.6,23.5l84.4-50.2V447.6H489.7z"/>
			<path d="M538.3,615.6c-0.5,0-1.1-0.3-1.4-0.8c-4.9-7.7-9.5-15.7-13.7-23.7c-23.3-44.7-35.1-93-35.1-143.6c0-0.9,0.7-1.7,1.7-1.7
				h133c0.9,0,1.7,0.7,1.7,1.7v116.2c0,0.6-0.3,1.1-0.8,1.4l-84.4,50.2C538.8,615.5,538.6,615.6,538.3,615.6z M491.4,449.3
				c0.3,49.4,11.9,96.6,34.7,140.4c3.9,7.4,8.1,14.8,12.7,22l82.2-48.9V449.3H491.4z"/>
		</g>
		<g>
			<path class="st2" d="M622.7,574.5v-10.7l-84.4,50.1c21.9,34.3,50.4,64.1,83.7,87.4c0.2,0,0.5,0,0.7,0V574.5z"/>
			<path d="M622.7,703h-0.4c-0.3,0-1-0.1-1.3-0.3c-33.7-23.6-62-53.2-84.2-87.9c-0.2-0.4-0.3-0.8-0.2-1.3c0.1-0.4,0.4-0.8,0.8-1
				l84.4-50.2c0.5-0.3,1.1-0.3,1.7,0c0.5,0.3,0.8,0.8,0.8,1.4v137.6C624.3,702.3,623.6,703,622.7,703z M540.6,614.5
				c21.3,33,48.4,61.3,80.4,84.1V566.7L540.6,614.5z"/>
		</g>
		<g>
			<path class="st1" d="M707.1,613.9l-84.4-50.2l0,0v10.7v126.9c0.2,0,0.5,0,0.7,0C656.7,678,685.2,648.3,707.1,613.9z"/>
			<path d="M622.7,703c-0.9,0-1.7-0.7-1.7-1.7V563.8c0-0.5,0.2-1,0.7-1.3c0.5-0.4,1.3-0.5,1.9-0.1l84.4,50.2c0.4,0.2,0.7,0.6,0.8,1
				s0,0.9-0.2,1.3c-22.1,34.7-50.5,64.3-84.2,87.9c-0.3,0.2-0.6,0.3-0.9,0.3L622.7,703z M624.3,566.7v131.9
				c32.1-22.8,59.1-51.1,80.5-84.1L624.3,566.7z"/>
		</g>
		<g>
			<path class="st2" d="M622.7,563.8L622.7,563.8l84.4,50.2c4.9-7.6,9.4-15.5,13.6-23.5c22.3-42.7,34.9-91.3,34.9-142.8h-133
				L622.7,563.8L622.7,563.8z"/>
			<path d="M707.1,615.6c-0.3,0-0.6-0.1-0.8-0.2L622,565.3l0,0c-0.6-0.3-0.9-0.8-0.9-1.5V447.6c0-0.9,0.7-1.7,1.7-1.7h133
				c0.9,0,1.7,0.7,1.7,1.7c0,50.6-11.8,98.9-35.1,143.6c-4.1,7.9-8.7,15.9-13.7,23.7C708.2,615.3,707.7,615.6,707.1,615.6z
				 M624.3,562.8l82.2,48.9c4.6-7.2,8.8-14.6,12.7-22c22.8-43.7,34.5-91,34.7-140.4H624.3V562.8z"/>
		</g>
	</g>
	<g>
		<circle class="st0" cx="396.1" cy="333.4" r="24.1"/>
		<path d="M396.1,359.1c-14.2,0-25.7-11.5-25.7-25.7s11.5-25.7,25.7-25.7s25.7,11.5,25.7,25.7C421.9,347.6,410.3,359.1,396.1,359.1z
			 M396.1,311c-12.4,0-22.4,10.1-22.4,22.4s10.1,22.4,22.4,22.4s22.4-10.1,22.4-22.4S408.5,311,396.1,311z"/>
	</g>
	<g>
		<circle class="st0" cx="396.1" cy="561.8" r="24.1"/>
		<path d="M396.1,587.6c-14.2,0-25.7-11.5-25.7-25.7s11.5-25.7,25.7-25.7s25.7,11.5,25.7,25.7S410.3,587.6,396.1,587.6z
			 M396.1,539.4c-12.4,0-22.4,10.1-22.4,22.4c0,12.4,10.1,22.4,22.4,22.4s22.4-10.1,22.4-22.4C418.5,549.5,408.5,539.4,396.1,539.4z
			"/>
	</g>
	<g>
		<path class="st0" d="M646.1,331.4c0,13.3-10.8,24.1-24.1,24.1s-24.1-10.8-24.1-24.1c0-13.3,10.8-24.1,24.1-24.1
			C635.3,307.4,646.1,318.1,646.1,331.4z"/>
		<path d="M622,357.2c-14.2,0-25.7-11.5-25.7-25.7s11.5-25.7,25.7-25.7s25.7,11.5,25.7,25.7C647.7,345.6,636.2,357.2,622,357.2z
			 M622,309c-12.4,0-22.4,10.1-22.4,22.4c0,12.4,10.1,22.4,22.4,22.4c12.4,0,22.4-10.1,22.4-22.4C644.4,319.1,634.3,309,622,309z"/>
	</g>
	<g>
		<circle class="st0" cx="622" cy="563.8" r="24.1"/>
		<path d="M622,589.5c-14.2,0-25.7-11.5-25.7-25.7s11.5-25.7,25.7-25.7s25.7,11.5,25.7,25.7S636.2,589.5,622,589.5z M622,541.4
			c-12.4,0-22.4,10.1-22.4,22.4c0,12.4,10.1,22.4,22.4,22.4c12.4,0,22.4-10.1,22.4-22.4C644.4,551.4,634.3,541.4,622,541.4z"/>
	</g>
	<g>
		<circle class="st0" cx="848" cy="333.4" r="24.1"/>
		<path d="M848,359.1c-14.2,0-25.7-11.5-25.7-25.7s11.5-25.7,25.7-25.7s25.7,11.5,25.7,25.7C873.8,347.6,862.2,359.1,848,359.1z
			 M848,311c-12.4,0-22.4,10.1-22.4,22.4c0,12.4,10.1,22.4,22.4,22.4c12.4,0,22.4-10.1,22.4-22.4C870.5,321,860.4,311,848,311z"/>
	</g>
	<g>
		<path class="st0" d="M778.5,447.6c0,13.3-10.8,24.1-24.1,24.1s-24.1-10.8-24.1-24.1c0-13.3,10.8-24.1,24.1-24.1
			C767.7,423.5,778.5,434.3,778.5,447.6z"/>
		<path d="M754.4,473.4c-14.2,0-25.7-11.5-25.7-25.7s11.5-25.7,25.7-25.7s25.7,11.5,25.7,25.7C780.2,461.8,768.6,473.4,754.4,473.4z
			 M754.4,425.2c-12.4,0-22.4,10.1-22.4,22.4c0,12.4,10.1,22.4,22.4,22.4c12.4,0,22.4-10.1,22.4-22.4
			C776.9,435.3,766.8,425.2,754.4,425.2z"/>
	</g>
	<g>
		<path class="st0" d="M513.8,447.6c0,13.3-10.8,24.1-24.1,24.1s-24.1-10.8-24.1-24.1c0-13.3,10.8-24.1,24.1-24.1
			C503,423.5,513.8,434.3,513.8,447.6z"/>
		<path d="M489.7,473.4c-14.2,0-25.7-11.5-25.7-25.7s11.5-25.7,25.7-25.7s25.7,11.5,25.7,25.7C515.5,461.8,503.9,473.4,489.7,473.4z
			 M489.7,425.2c-12.4,0-22.4,10.1-22.4,22.4c0,12.4,10.1,22.4,22.4,22.4s22.4-10.1,22.4-22.4C512.2,435.3,502.1,425.2,489.7,425.2z
			"/>
	</g>
	<g>
		<circle class="st0" cx="848" cy="561.8" r="24.1"/>
		<path d="M848,587.6c-14.2,0-25.7-11.5-25.7-25.7s11.5-25.7,25.7-25.7s25.7,11.5,25.7,25.7S862.2,587.6,848,587.6z M848,539.4
			c-12.4,0-22.4,10.1-22.4,22.4c0,12.4,10.1,22.4,22.4,22.4c12.4,0,22.4-10.1,22.4-22.4C870.5,549.5,860.4,539.4,848,539.4z"/>
	</g>
	<g>
		<g>
			<path class="st3" d="M1056.3,287.1c-107.6,0-195.2-35.8-195.2-79.8s87.5-79.8,195.2-79.8c107.6,0,195.2,35.8,195.2,79.8
				C1251.4,251.3,1163.9,287.1,1056.3,287.1z M1056.3,130.7c-105.8,0-191.8,34.3-191.8,76.5s86.1,76.5,191.8,76.5
				c105.8,0,191.8-34.3,191.8-76.5C1248.1,165.1,1162.1,130.7,1056.3,130.7z"/>
		</g>
		<g>
			<path class="st3" d="M1056.3,287.1c-107.6,0-195.2-35.8-195.2-79.8s87.5-79.8,195.2-79.8c107.6,0,195.2,35.8,195.2,79.8
				C1251.4,251.3,1163.9,287.1,1056.3,287.1z M1056.3,130.7c-105.8,0-191.8,34.3-191.8,76.5s86.1,76.5,191.8,76.5
				c105.8,0,191.8-34.3,191.8-76.5C1248.1,165.1,1162.1,130.7,1056.3,130.7z"/>
		</g>
		<g>
			<path class="st3" d="M1135.1,381c-41.6,0-102.4-55-147.9-133.9c-25.9-44.9-43.3-91.3-48.8-130.5c-5.6-39.7,1.6-67.6,20.4-78.4
				c5.5-3.2,11.8-4.8,18.8-4.8c41.6,0,102.4,55,147.9,133.8c25.9,44.9,43.3,91.3,48.8,130.5c5.6,39.7-1.6,67.6-20.4,78.4
				C1148.4,379.4,1142.1,381,1135.1,381z M977.5,36.8c-6.4,0-12.2,1.5-17.1,4.3c-17.5,10.1-24.1,36.7-18.7,75.1
				c5.5,38.8,22.6,84.8,48.4,129.3c44.2,76.6,105.2,132.2,145,132.2c6.4,0,12.2-1.5,17.1-4.3c17.5-10.1,24.1-36.7,18.7-75.1
				c-5.5-38.8-22.6-84.8-48.4-129.3C1078.3,92.4,1017.3,36.8,977.5,36.8z"/>
		</g>
		<g>
			<path class="st3" d="M1135.1,381c-41.6,0-102.4-55-147.9-133.9c-25.9-44.9-43.3-91.3-48.8-130.5c-5.6-39.7,1.6-67.6,20.4-78.4
				c5.5-3.2,11.8-4.8,18.8-4.8c41.6,0,102.4,55,147.9,133.8c25.9,44.9,43.3,91.3,48.8,130.5c5.6,39.7-1.6,67.6-20.4,78.4
				C1148.4,379.4,1142.1,381,1135.1,381z M977.5,36.8c-6.4,0-12.2,1.5-17.1,4.3c-17.5,10.1-24.1,36.7-18.7,75.1
				c5.5,38.8,22.6,84.8,48.4,129.3c44.2,76.6,105.2,132.2,145,132.2c6.4,0,12.2-1.5,17.1-4.3c17.5-10.1,24.1-36.7,18.7-75.1
				c-5.5-38.8-22.6-84.8-48.4-129.3C1078.3,92.4,1017.3,36.8,977.5,36.8z"/>
		</g>
		<g>
			<path class="st3" d="M977.5,381c-7,0-13.3-1.6-18.8-4.8c-18.7-10.8-25.9-38.6-20.4-78.4c5.5-39.2,22.8-85.6,48.8-130.5
				c45.5-78.8,106.3-133.8,147.9-133.8c7,0,13.3,1.6,18.8,4.8c18.7,10.8,25.9,38.6,20.3,78.4c-5.5,39.2-22.8,85.6-48.8,130.5
				C1079.9,326,1019.1,381,977.5,381z M1135.1,36.8c-39.8,0-100.8,55.6-145.1,132.2c-25.7,44.6-42.9,90.5-48.4,129.3
				c-5.4,38.3,1.3,65,18.7,75.1c5,2.9,10.7,4.3,17.1,4.3c39.8,0,100.8-55.6,145-132.2c25.7-44.6,42.9-90.5,48.4-129.3
				c5.4-38.3-1.3-65-18.7-75.1C1147.2,38.3,1141.5,36.8,1135.1,36.8z"/>
		</g>
		<g>
			<path class="st3" d="M977.5,381c-7,0-13.3-1.6-18.8-4.8c-18.7-10.8-25.9-38.6-20.4-78.4c5.5-39.2,22.8-85.6,48.8-130.5
				c45.5-78.8,106.3-133.8,147.9-133.8c7,0,13.3,1.6,18.8,4.8c18.7,10.8,25.9,38.6,20.3,78.4c-5.5,39.2-22.8,85.6-48.8,130.5
				C1079.9,326,1019.1,381,977.5,381z M1135.1,36.8c-39.8,0-100.8,55.6-145.1,132.2c-25.7,44.6-42.9,90.5-48.4,129.3
				c-5.4,38.3,1.3,65,18.7,75.1c5,2.9,10.7,4.3,17.1,4.3c39.8,0,100.8-55.6,145-132.2c25.7-44.6,42.9-90.5,48.4-129.3
				c5.4-38.3-1.3-65-18.7-75.1C1147.2,38.3,1141.5,36.8,1135.1,36.8z"/>
		</g>
		<g>
			<g>
				<g>
					<path class="st3" d="M1108.1,191.3h-103.7c-0.9,0-1.7-0.7-1.7-1.7v-32.7c0-0.9,0.7-1.7,1.7-1.7h103.7c0.9,0,1.7,0.7,1.7,1.7
						v32.7C1109.8,190.6,1109.1,191.3,1108.1,191.3z M1006.1,188h100.4v-29.4h-100.4V188z"/>
				</g>
				<g>
					<path class="st3" d="M1108.1,259.2h-103.7c-0.9,0-1.7-0.7-1.7-1.7v-32.7c0-0.9,0.7-1.7,1.7-1.7h103.7c0.9,0,1.7,0.7,1.7,1.7
						v32.7C1109.8,258.4,1109.1,259.2,1108.1,259.2z M1006.1,255.8h100.4v-29.4h-100.4V255.8z"/>
				</g>
				<g>
					<path class="st3" d="M1108.1,226.5h-103.7c-0.9,0-1.7-0.7-1.7-1.7v-35.1c0-0.9,0.7-1.7,1.7-1.7h103.7c0.9,0,1.7,0.7,1.7,1.7
						v35.1C1109.8,225.7,1109.1,226.5,1108.1,226.5z M1006.1,223.2h100.4v-31.9h-100.4V223.2z"/>
				</g>
			</g>
			<g>
				<path class="st3" d="M1091.4,178.9c-3.1,0-5.6-2.5-5.6-5.6s2.5-5.6,5.6-5.6s5.6,2.5,5.6,5.6S1094.5,178.9,1091.4,178.9z
					 M1091.4,171.1c-1.2,0-2.3,1-2.3,2.3c0,1.2,1,2.3,2.3,2.3c1.2,0,2.3-1,2.3-2.3S1092.7,171.1,1091.4,171.1z"/>
			</g>
			<g>
				<path class="st3" d="M1075.7,178.9c-3.1,0-5.6-2.5-5.6-5.6s2.5-5.6,5.6-5.6s5.6,2.5,5.6,5.6S1078.8,178.9,1075.7,178.9z
					 M1075.7,171.1c-1.2,0-2.3,1-2.3,2.3c0,1.2,1,2.3,2.3,2.3s2.3-1,2.3-2.3C1078,172.1,1076.9,171.1,1075.7,171.1z"/>
			</g>
			<g>
				<path class="st3" d="M1056.3,175h-40.2c-0.9,0-1.7-0.7-1.7-1.7c0-0.9,0.7-1.7,1.7-1.7h40.2c0.9,0,1.7,0.7,1.7,1.7
					C1057.9,174.3,1057.2,175,1056.3,175z"/>
			</g>
			<g>
				<path class="st3" d="M1091.4,212.8c-3.1,0-5.6-2.5-5.6-5.6s2.5-5.6,5.6-5.6s5.6,2.5,5.6,5.6S1094.5,212.8,1091.4,212.8z
					 M1091.4,205c-1.2,0-2.3,1-2.3,2.3s1,2.3,2.3,2.3c1.2,0,2.3-1,2.3-2.3S1092.7,205,1091.4,205z"/>
			</g>
			<g>
				<path class="st3" d="M1075.7,212.8c-3.1,0-5.6-2.5-5.6-5.6s2.5-5.6,5.6-5.6s5.6,2.5,5.6,5.6S1078.8,212.8,1075.7,212.8z
					 M1075.7,205c-1.2,0-2.3,1-2.3,2.3s1,2.3,2.3,2.3s2.3-1,2.3-2.3S1076.9,205,1075.7,205z"/>
			</g>
			<g>
				<path class="st3" d="M1056.3,208.9h-40.2c-0.9,0-1.7-0.7-1.7-1.7c0-0.9,0.7-1.7,1.7-1.7h40.2c0.9,0,1.7,0.7,1.7,1.7
					C1057.9,208.2,1057.2,208.9,1056.3,208.9z"/>
			</g>
			<g>
				<path class="st3" d="M1091.4,246.7c-3.1,0-5.6-2.5-5.6-5.6s2.5-5.6,5.6-5.6s5.6,2.5,5.6,5.6S1094.5,246.7,1091.4,246.7z
					 M1091.4,238.9c-1.2,0-2.3,1-2.3,2.3c0,1.2,1,2.3,2.3,2.3c1.2,0,2.3-1,2.3-2.3S1092.7,238.9,1091.4,238.9z"/>
			</g>
			<g>
				<path class="st3" d="M1075.7,246.7c-3.1,0-5.6-2.5-5.6-5.6s2.5-5.6,5.6-5.6s5.6,2.5,5.6,5.6S1078.8,246.7,1075.7,246.7z
					 M1075.7,238.9c-1.2,0-2.3,1-2.3,2.3c0,1.2,1,2.3,2.3,2.3s2.3-1,2.3-2.3C1078,239.9,1076.9,238.9,1075.7,238.9z"/>
			</g>
			<g>
				<path class="st3" d="M1056.3,242.8h-40.2c-0.9,0-1.7-0.7-1.7-1.7c0-0.9,0.7-1.7,1.7-1.7h40.2c0.9,0,1.7,0.7,1.7,1.7
					C1057.9,242.1,1057.2,242.8,1056.3,242.8z"/>
			</g>
		</g>
	</g>
	<g>
		<g>
			<path class="st3" d="M262.7,497.7H98.3c-0.9,0-1.7-0.7-1.7-1.7V386.9c0-0.9,0.7-1.7,1.7-1.7h164.4c0.9,0,1.7,0.7,1.7,1.7v109.2
				C264.4,497,263.6,497.7,262.7,497.7z M100,494.4h161.1V388.5H100V494.4z"/>
		</g>
		<g>
			<path class="st3" d="M79.5,422.9c-0.8,0-1.6-0.6-1.6-1.5c-0.1-0.9,0.6-1.7,1.5-1.8l202-19c0.9-0.1,1.7,0.6,1.8,1.5
				c0.1,0.9-0.6,1.7-1.5,1.8l-202,19C79.6,422.9,79.5,422.9,79.5,422.9z"/>
		</g>
		<g>
			<path class="st3" d="M79.5,452.7c-0.8,0-1.6-0.6-1.6-1.5c-0.1-0.9,0.6-1.7,1.5-1.8l202-19c0.9-0.1,1.7,0.6,1.8,1.5
				c0.1,0.9-0.6,1.7-1.5,1.8l-202,19C79.6,452.6,79.5,452.7,79.5,452.7z"/>
		</g>
		<g>
			<path class="st3" d="M79.5,482.5c-0.8,0-1.6-0.6-1.6-1.5c-0.1-0.9,0.6-1.7,1.5-1.8l202-19c0.9-0.1,1.7,0.6,1.8,1.5
				c0.1,0.9-0.6,1.7-1.5,1.8l-202,19C79.6,482.5,79.5,482.5,79.5,482.5z"/>
		</g>
		<g>
			<path class="st3" d="M215.1,518.4H146c-0.9,0-1.7-0.7-1.7-1.7V496c0-0.9,0.7-1.7,1.7-1.7h69.1c0.9,0,1.7,0.7,1.7,1.7v20.7
				C216.7,517.7,216,518.4,215.1,518.4z M147.6,515.1h65.8v-17.4h-65.8V515.1z"/>
		</g>
		<g>
			<path class="st3" d="M228,388.5h-22.7c-0.9,0-1.7-0.7-1.7-1.7V281.7h-23.2v105.2c0,0.9-0.7,1.7-1.7,1.7H156
				c-0.9,0-1.7-0.7-1.7-1.7V235.1h-23v151.7c0,0.9-0.7,1.7-1.7,1.7h-16.2c-0.9,0-1.7-0.7-1.7-1.7v-24.7c-0.3-1.2-2.1-8.1-6.3-18.1
				c-0.1-0.2-0.1-0.4-0.1-0.6v-61.8H82.1v16.2c0,0.7-0.5,1.3-1.1,1.6c-0.7,0.2-1.4,0-1.8-0.6c-3.5-4.6-6.9-8.7-10.3-12.5
				c-25.3-27.8-39.2-63.8-39.2-101.5c0-83.2,67.7-150.9,150.9-150.9s150.9,67.7,150.9,150.9c0,30.6-9.1,60-26.3,85.2
				c-0.4,0.6-1.2,0.9-1.9,0.6c-0.7-0.2-1.2-0.9-1.2-1.6V128.4h-23.2v174.1c0,0.3-0.1,0.7-0.3,1c-11.3,15.7-18.5,30.3-22.5,39.7
				c-0.3,0.7-1.1,1.1-1.9,1c-0.8-0.2-1.3-0.8-1.3-1.6V171.9h-23.2v215C229.7,387.8,228.9,388.5,228,388.5z M207,385.2h19.4V170.3
				c0-0.9,0.7-1.7,1.7-1.7h26.5c0.9,0,1.7,0.7,1.7,1.7v164.5c4.3-9,10.6-20.6,19.4-32.8V126.7c0-0.9,0.7-1.7,1.7-1.7h26.5
				c0.9,0,1.7,0.7,1.7,1.7v136.9c14.9-23.6,22.7-50.7,22.7-78.7c0-81.4-66.2-147.6-147.6-147.6S33.1,103.5,33.1,184.9
				c0,36.8,13.6,72,38.3,99.2c2.5,2.8,5,5.8,7.5,8.9v-13.1c0-0.9,0.7-1.7,1.7-1.7h26.5c0.9,0,1.7,0.7,1.7,1.7V343
				c4.6,11.1,6.4,18.2,6.4,18.5c0,0.1,0,0.3,0,0.4v23.2h12.9V233.5c0-0.9,0.7-1.7,1.7-1.7h26.5c0.9,0,1.7,0.7,1.7,1.7v151.7h19.4
				V280c0-0.9,0.7-1.7,1.7-1.7h26.2c0.9,0,1.7,0.7,1.7,1.7V385.2z"/>
		</g>
		<g>
			<path class="st3" d="M106.9,345.2c-0.7,0-1.3-0.4-1.5-1c-4.6-10.9-12.8-27.6-26.3-45.2c-0.2-0.3-0.3-0.6-0.3-1v-17.9
				c0-0.9,0.7-1.7,1.7-1.7H107c0.9,0,1.7,0.7,1.7,1.7v63.5c0,0.8-0.6,1.5-1.3,1.6C107.2,345.1,107,345.2,106.9,345.2z M82.1,297.4
				c10.8,14.2,18.3,27.8,23.2,38.3v-54H82.1V297.4z"/>
		</g>
		<g>
			<path class="st3" d="M156.1,388.5h-26.5c-0.9,0-1.7-0.7-1.7-1.7V233.5c0-0.9,0.7-1.7,1.7-1.7h26.5c0.9,0,1.7,0.7,1.7,1.7v153.4
				C157.8,387.8,157,388.5,156.1,388.5z M131.3,385.2h23.2V235.1h-23.2V385.2z"/>
		</g>
		<g>
			<path class="st3" d="M205.3,388.5h-26.5c-0.9,0-1.7-0.7-1.7-1.7V280c0-0.9,0.7-1.7,1.7-1.7h26.5c0.9,0,1.7,0.7,1.7,1.7v106.8
				C207,387.8,206.2,388.5,205.3,388.5z M180.5,385.2h23.2V281.7h-23.2V385.2z"/>
		</g>
		<g>
			<path class="st3" d="M247.6,388.5H228c-0.9,0-1.7-0.7-1.7-1.7V170.3c0-0.9,0.7-1.7,1.7-1.7h26.5c0.9,0,1.7,0.7,1.7,1.7v172.2
				c0,0.2,0,0.4-0.1,0.6c-4.5,10.5-6.4,17.7-6.8,19.1v24.7C249.3,387.8,248.5,388.5,247.6,388.5z M229.7,385.2H246v-23.3
				c0-0.1,0-0.3,0.1-0.4c0.2-0.8,2.1-8.3,6.8-19.4V171.9h-23.2L229.7,385.2L229.7,385.2z"/>
		</g>
		<g>
			<path class="st3" d="M277.2,304.1c-0.2,0-0.3,0-0.5-0.1c-0.7-0.2-1.1-0.9-1.1-1.6V126.7c0-0.9,0.7-1.7,1.7-1.7h26.5
				c0.9,0,1.7,0.7,1.7,1.7v142.5c0,0.3-0.1,0.7-0.3,0.9c-4,5.8-8.3,11.2-12.9,16.3c-4.7,5.2-9.1,10.8-13.6,17
				C278.2,303.9,277.7,304.1,277.2,304.1z M278.9,128.4v169c3.6-4.7,7.1-9.1,10.9-13.2c4.4-4.8,8.5-10.1,12.3-15.5V128.4H278.9z"/>
		</g>
		<g>
			<path class="st3" d="M79.5,231c-0.5,0-0.9-0.2-1.3-0.6c-0.6-0.7-0.5-1.7,0.2-2.3l63.4-52.9c0.3-0.2,0.7-0.4,1.1-0.4h48.3
				l61.9-86.4c0.5-0.7,1.6-0.9,2.3-0.4c0.7,0.5,0.9,1.6,0.4,2.3l-62.4,87.1c-0.3,0.4-0.8,0.7-1.3,0.7h-48.6l-62.9,52.5
				C80.2,230.9,79.9,231,79.5,231z"/>
		</g>
		<g>
			<path class="st3" d="M258.2,116c-0.8,0-1.5-0.6-1.6-1.5l-2.7-23.3l-23.5,2.7c-0.9,0.1-1.7-0.5-1.8-1.5c-0.1-0.9,0.5-1.7,1.5-1.8
				l25.2-2.9c0.9-0.1,1.7,0.5,1.8,1.5l2.9,25c0.1,0.9-0.5,1.7-1.5,1.8C258.3,116,258.3,116,258.2,116z"/>
		</g>
	</g>
	<g>
		<g>
			<g>
				<g>
					<path class="st3" d="M252.1,632.9H109.9c-0.9,0-1.7-0.7-1.7-1.7v-44.8c0-0.9,0.7-1.7,1.7-1.7h142.2c0.9,0,1.7,0.7,1.7,1.7v44.9
						C253.7,632.2,253,632.9,252.1,632.9z M111.6,629.6h138.8v-41.5H111.6V629.6z"/>
				</g>
				<g>
					<path class="st3" d="M252.1,725.9H109.9c-0.9,0-1.7-0.7-1.7-1.7v-44.8c0-0.9,0.7-1.7,1.7-1.7h142.2c0.9,0,1.7,0.7,1.7,1.7v44.8
						C253.7,725.1,253,725.9,252.1,725.9z M111.6,722.6h138.8v-41.5H111.6V722.6z"/>
				</g>
				<g>
					<path class="st3" d="M252.1,681.1H109.9c-0.9,0-1.7-0.7-1.7-1.7v-48.1c0-0.9,0.7-1.7,1.7-1.7h142.2c0.9,0,1.7,0.7,1.7,1.7v48.1
						C253.7,680.3,253,681.1,252.1,681.1z M111.6,677.7h138.8v-44.8H111.6V677.7z"/>
				</g>
			</g>
			<g>
				<path class="st3" d="M229.2,615.9c-3.9,0-7-3.2-7-7c0-3.9,3.1-7,7-7s7,3.2,7,7C236.2,612.7,233,615.9,229.2,615.9z M229.2,605.1
					c-2,0-3.7,1.7-3.7,3.7s1.7,3.7,3.7,3.7s3.7-1.7,3.7-3.7S231.2,605.1,229.2,605.1z"/>
			</g>
			<g>
				<path class="st3" d="M207.6,615.9c-3.9,0-7-3.2-7-7c0-3.9,3.2-7,7-7c3.9,0,7,3.2,7,7C214.6,612.7,211.5,615.9,207.6,615.9z
					 M207.6,605.1c-2,0-3.7,1.7-3.7,3.7s1.7,3.7,3.7,3.7s3.7-1.7,3.7-3.7S209.6,605.1,207.6,605.1z"/>
			</g>
			<g>
				<path class="st3" d="M181,610.5h-55.1c-0.9,0-1.7-0.7-1.7-1.7s0.7-1.7,1.7-1.7H181c0.9,0,1.7,0.7,1.7,1.7S181.9,610.5,181,610.5
					z"/>
			</g>
			<g>
				<path class="st3" d="M229.2,662.4c-3.9,0-7-3.2-7-7s3.1-7,7-7s7,3.2,7,7S233,662.4,229.2,662.4z M229.2,651.6
					c-2,0-3.7,1.7-3.7,3.7s1.7,3.7,3.7,3.7s3.7-1.7,3.7-3.7S231.2,651.6,229.2,651.6z"/>
			</g>
			<g>
				<path class="st3" d="M207.6,662.4c-3.9,0-7-3.2-7-7s3.2-7,7-7c3.9,0,7,3.2,7,7S211.5,662.4,207.6,662.4z M207.6,651.6
					c-2,0-3.7,1.7-3.7,3.7s1.7,3.7,3.7,3.7s3.7-1.7,3.7-3.7S209.6,651.6,207.6,651.6z"/>
			</g>
			<g>
				<path class="st3" d="M181,657h-55.1c-0.9,0-1.7-0.7-1.7-1.7c0-0.9,0.7-1.7,1.7-1.7H181c0.9,0,1.7,0.7,1.7,1.7
					C182.7,656.2,181.9,657,181,657z"/>
			</g>
			<g>
				<path class="st3" d="M229.2,708.8c-3.9,0-7-3.2-7-7c0-3.9,3.1-7,7-7s7,3.2,7,7C236.2,705.7,233,708.8,229.2,708.8z M229.2,698.1
					c-2,0-3.7,1.7-3.7,3.7s1.7,3.7,3.7,3.7s3.7-1.7,3.7-3.7S231.2,698.1,229.2,698.1z"/>
			</g>
			<g>
				<path class="st3" d="M207.6,708.8c-3.9,0-7-3.2-7-7c0-3.9,3.2-7,7-7c3.9,0,7,3.2,7,7C214.6,705.7,211.5,708.8,207.6,708.8z
					 M207.6,698.1c-2,0-3.7,1.7-3.7,3.7s1.7,3.7,3.7,3.7s3.7-1.7,3.7-3.7S209.6,698.1,207.6,698.1z"/>
			</g>
			<g>
				<path class="st3" d="M181,703.5h-55.1c-0.9,0-1.7-0.7-1.7-1.7c0-0.9,0.7-1.7,1.7-1.7H181c0.9,0,1.7,0.7,1.7,1.7
					C182.7,702.7,181.9,703.5,181,703.5z"/>
			</g>
		</g>
		<g>
			<g>
				<g>
					<path class="st3" d="M252.1,770.7H109.9c-0.9,0-1.7-0.7-1.7-1.7v-44.8c0-0.9,0.7-1.7,1.7-1.7h142.2c0.9,0,1.7,0.7,1.7,1.7V769
						C253.7,769.9,253,770.7,252.1,770.7z M111.6,767.4h138.8v-41.5H111.6V767.4z"/>
				</g>
				<g>
					<path class="st3" d="M252.1,863.6H109.9c-0.9,0-1.7-0.7-1.7-1.7v-44.8c0-0.9,0.7-1.7,1.7-1.7h142.2c0.9,0,1.7,0.7,1.7,1.7v44.8
						C253.7,862.9,253,863.6,252.1,863.6z M111.6,860.3h138.8v-41.5H111.6V860.3z"/>
				</g>
				<g>
					<path class="st3" d="M252.1,818.8H109.9c-0.9,0-1.7-0.7-1.7-1.7V769c0-0.9,0.7-1.7,1.7-1.7h142.2c0.9,0,1.7,0.7,1.7,1.7v48.1
						C253.7,818.1,253,818.8,252.1,818.8z M111.6,815.5h138.8v-44.8H111.6V815.5z"/>
				</g>
			</g>
			<g>
				<path class="st3" d="M229.2,753.6c-3.9,0-7-3.2-7-7c0-3.9,3.1-7,7-7s7,3.2,7,7C236.2,750.5,233,753.6,229.2,753.6z M229.2,742.9
					c-2,0-3.7,1.7-3.7,3.7s1.7,3.7,3.7,3.7s3.7-1.7,3.7-3.7S231.2,742.9,229.2,742.9z"/>
			</g>
			<g>
				<path class="st3" d="M207.6,753.6c-3.9,0-7-3.2-7-7c0-3.9,3.2-7,7-7c3.9,0,7,3.2,7,7C214.6,750.5,211.5,753.6,207.6,753.6z
					 M207.6,742.9c-2,0-3.7,1.7-3.7,3.7s1.7,3.7,3.7,3.7s3.7-1.7,3.7-3.7S209.6,742.9,207.6,742.9z"/>
			</g>
			<g>
				<path class="st3" d="M181,748.3h-55.1c-0.9,0-1.7-0.7-1.7-1.7s0.7-1.7,1.7-1.7H181c0.9,0,1.7,0.7,1.7,1.7S181.9,748.3,181,748.3
					z"/>
			</g>
			<g>
				<path class="st3" d="M229.2,800.1c-3.9,0-7-3.2-7-7c0-3.9,3.1-7,7-7s7,3.2,7,7C236.2,797,233,800.1,229.2,800.1z M229.2,789.4
					c-2,0-3.7,1.7-3.7,3.7s1.7,3.7,3.7,3.7s3.7-1.7,3.7-3.7C232.9,791,231.2,789.4,229.2,789.4z"/>
			</g>
			<g>
				<path class="st3" d="M207.6,800.1c-3.9,0-7-3.2-7-7c0-3.9,3.2-7,7-7c3.9,0,7,3.2,7,7C214.6,797,211.5,800.1,207.6,800.1z
					 M207.6,789.4c-2,0-3.7,1.7-3.7,3.7s1.7,3.7,3.7,3.7s3.7-1.7,3.7-3.7C211.3,791,209.6,789.4,207.6,789.4z"/>
			</g>
			<g>
				<path class="st3" d="M181,794.8h-55.1c-0.9,0-1.7-0.7-1.7-1.7c0-0.9,0.7-1.7,1.7-1.7H181c0.9,0,1.7,0.7,1.7,1.7
					C182.7,794,181.9,794.8,181,794.8z"/>
			</g>
			<g>
				<path class="st3" d="M229.2,846.6c-3.9,0-7-3.2-7-7c0-3.9,3.1-7,7-7s7,3.2,7,7S233,846.6,229.2,846.6z M229.2,835.9
					c-2,0-3.7,1.7-3.7,3.7s1.7,3.7,3.7,3.7s3.7-1.7,3.7-3.7C232.9,837.5,231.2,835.9,229.2,835.9z"/>
			</g>
			<g>
				<path class="st3" d="M207.6,846.6c-3.9,0-7-3.2-7-7c0-3.9,3.2-7,7-7c3.9,0,7,3.2,7,7S211.5,846.6,207.6,846.6z M207.6,835.9
					c-2,0-3.7,1.7-3.7,3.7s1.7,3.7,3.7,3.7s3.7-1.7,3.7-3.7C211.3,837.5,209.6,835.9,207.6,835.9z"/>
			</g>
			<g>
				<path class="st3" d="M181,841.2h-55.1c-0.9,0-1.7-0.7-1.7-1.7s0.7-1.7,1.7-1.7H181c0.9,0,1.7,0.7,1.7,1.7S181.9,841.2,181,841.2
					z"/>
			</g>
		</g>
		<g>
			<g>
				<path d="M108.4,834.3c-4.8,0-9.7-0.3-14.8-1c-0.7-0.1-1.3-0.7-1.4-1.4l-3.7-30c-3.3-0.8-6.5-1.9-9.6-3.1l-20.7,22.1
					c-0.5,0.6-1.3,0.7-2,0.3c-8.6-4.7-16.7-10.5-23.9-17.4c-0.5-0.5-0.7-1.3-0.3-2l14.6-26.5c-2.2-2.6-4.2-5.4-6-8.2l-29.7,5.8
					c-0.7,0.1-1.5-0.2-1.8-0.9c-4.3-8.8-7.3-18.3-9.1-28.1c-0.1-0.7,0.2-1.5,0.9-1.8l27.4-12.8c-0.1-1.9-0.2-3.5-0.2-5.1
					s0.1-3.3,0.2-5.1L1,706.3c-0.7-0.3-1.1-1.1-0.9-1.8c1.8-9.8,4.8-19.3,9.1-28.1c0.3-0.7,1.1-1.1,1.8-0.9l29.7,5.8
					c1.8-2.8,3.8-5.6,6-8.2l-14.6-26.5c-0.4-0.7-0.2-1.5,0.3-2c7.2-6.9,15.2-12.7,23.9-17.4c0.7-0.4,1.5-0.2,2,0.3L79,649.6
					c3.1-1.2,6.3-2.3,9.6-3.1l3.7-30c0.1-0.7,0.7-1.3,1.4-1.4c5-0.7,10-1,14.8-1h1.6c0.9,0,1.6,0.8,1.6,1.7V674
					c0,0.4-0.2,0.9-0.5,1.2s-0.8,0.5-1.2,0.5h-0.4c-0.3,0-0.7,0-1.1,0c-26.8,0-48.6,21.8-48.6,48.6s21.8,48.6,48.6,48.6
					c0.4,0,0.9,0,1.3,0c0.4,0,1,0.1,1.3,0.5c0.3,0.3,0.6,0.7,0.6,1.2v58.2c0,0.9-0.7,1.6-1.6,1.7L108.4,834.3z M95.3,830.2
					c4.4,0.5,8.8,0.8,12.9,0.8v-54.9c-28.5-0.1-51.7-23.3-51.7-51.9s23.2-51.8,51.7-51.9v-54.9c-4.2,0-8.5,0.3-12.9,0.8l-3.7,29.9
					c-0.1,0.7-0.6,1.2-1.3,1.4c-3.9,0.9-7.7,2.2-11.3,3.7c-0.6,0.3-1.4,0.1-1.8-0.4l-20.6-22c-7.6,4.2-14.7,9.4-21.1,15.4l14.6,26.3
					c0.3,0.6,0.3,1.4-0.2,1.9c-2.6,3-5,6.3-7,9.6c-0.4,0.6-1,0.9-1.7,0.8l-29.6-5.7c-3.7,7.8-6.4,16.2-8,24.9l27.3,12.8
					c0.6,0.3,1,0.9,1,1.6c-0.2,2.2-0.3,4.1-0.3,5.9c0,1.8,0.1,3.7,0.3,5.9c0.1,0.7-0.3,1.3-1,1.6L3.6,744.6c1.7,8.7,4.4,17,8,24.9
					l29.6-5.7c0.7-0.1,1.4,0.2,1.7,0.8c2,3.3,4.4,6.5,7,9.6c0.4,0.5,0.5,1.3,0.2,1.9l-14.6,26.2c6.4,6,13.5,11.2,21.1,15.4l20.6-22
					c0.5-0.5,1.2-0.7,1.8-0.4c3.6,1.5,7.5,2.7,11.3,3.7c0.7,0.2,1.2,0.7,1.3,1.4L95.3,830.2z"/>
			</g>
			<g>
				<path d="M108.4,776.1c-28.6,0-51.9-23.3-51.9-51.9c0-28.6,23.3-51.9,51.9-51.9c0.4,0,0.8,0,1.2,0h0.4c0.9,0,1.6,0.8,1.6,1.7
					v100.4c0,0.9-0.7,1.6-1.6,1.7C109.3,776.1,108.9,776.1,108.4,776.1z M108.3,675.6c-26.7,0.1-48.4,21.8-48.4,48.6
					c0,26.7,21.7,48.5,48.4,48.6V675.6z"/>
			</g>
		</g>
		<g>
			<path d="M326.8,713.6c-0.3,0-0.5-0.1-0.7-0.2c-0.6-0.3-0.9-0.9-0.9-1.5v-14.5h-73c-0.9,0-1.7-0.7-1.7-1.7v-60
				c0-0.9,0.7-1.7,1.7-1.7h73v-14.5c0-0.6,0.4-1.2,0.9-1.5c0.6-0.3,1.2-0.2,1.7,0.2l60.6,46.1c0.4,0.3,0.7,0.8,0.7,1.3
				s-0.2,1-0.7,1.3l-60.6,46.4C327.5,713.5,327.1,713.6,326.8,713.6z M253.7,694.2h73c0.9,0,1.7,0.7,1.7,1.7v12.8l56.2-42.8
				l-56.2-42.8v12.8c0,0.9-0.7,1.7-1.7,1.7h-73V694.2z"/>
		</g>
		<g>
			<path d="M396.9,830.4c-0.3,0-0.5-0.1-0.7-0.2c-0.6-0.3-0.9-0.9-0.9-1.5v-14.4H252.1c-0.9,0-1.7-0.7-1.7-1.7v-60
				c0-0.9,0.7-1.7,1.7-1.7h143.1v-14.5c0-0.6,0.4-1.2,0.9-1.5c0.6-0.3,1.2-0.2,1.7,0.2l60.6,46.1c0.4,0.3,0.7,0.8,0.7,1.3
				s-0.2,1-0.7,1.3l-60.6,46.1C397.6,830.3,397.2,830.4,396.9,830.4z M253.7,811h143.1c0.9,0,1.7,0.7,1.7,1.7v12.8l56.2-42.8
				l-56.2-42.8v12.8c0,0.9-0.7,1.7-1.7,1.7H253.7V811z"/>
		</g>
		<g>
			<path d="M298.6,797.3h-46.5c-0.9,0-1.7-0.7-1.7-1.7s0.7-1.7,1.7-1.7h46.5c0.9,0,1.7,0.7,1.7,1.7S299.5,797.3,298.6,797.3z"/>
		</g>
		<g>
			<path d="M298.6,681.1h-46.5c-0.9,0-1.7-0.7-1.7-1.7s0.7-1.7,1.7-1.7h46.5c0.9,0,1.7,0.7,1.7,1.7S299.5,681.1,298.6,681.1z"/>
		</g>
	</g>
	<g>
		<g>
			<ellipse class="st0" cx="1066.2" cy="521.5" rx="112.6" ry="22.9"/>
			<path class="st3" d="M1066.2,546c-55.4,0-114.3-8.6-114.3-24.6s58.9-24.6,114.3-24.6s114.3,8.6,114.3,24.6
				C1180.5,537.4,1121.6,546,1066.2,546z M1066.2,500.2c-65.4,0-111,11.2-111,21.3s45.6,21.3,111,21.3s111-11.2,111-21.3
				C1177.2,511.4,1131.6,500.2,1066.2,500.2z"/>
		</g>
		<g>
			<path class="st0" d="M968.7,596.4c-9.6,3.4-15.1,7.3-15.1,11.5c0,12.7,50.4,22.9,112.6,22.9s112.6-10.3,112.6-22.9
				c0-4.2-5.5-8.1-15.1-11.5c-19.5,6.8-55.8,11.5-97.5,11.5C1024.6,607.8,988.2,603.2,968.7,596.4z"/>
			<path class="st3" d="M1066.2,632.4c-55.4,0-114.3-8.6-114.3-24.6c0-4.9,5.5-9.2,16.2-13c0.4-0.1,0.7-0.1,1.1,0
				c19.9,7,57.1,11.4,96.9,11.4s77-4.4,96.9-11.4c0.4-0.1,0.7-0.1,1.1,0c10.8,3.8,16.2,8.2,16.2,13
				C1180.5,623.8,1121.6,632.4,1066.2,632.4z M968.8,598.1c-8.6,3.1-13.5,6.6-13.5,9.7c0,10.1,45.6,21.3,111,21.3s111-11.2,111-21.3
				c0-3.1-4.9-6.6-13.5-9.7c-20.4,7-57.6,11.4-97.5,11.4S989.2,605.1,968.8,598.1z"/>
		</g>
		<g>
			<path class="st0" d="M1066.2,544.4c-62.2,0-112.6-10.3-112.6-22.9v63.4c0,4.2,5.5,8.1,15.1,11.5c19.5,6.8,55.8,11.5,97.5,11.5
				s78-4.6,97.5-11.5c9.6-3.4,15.1-7.3,15.1-11.5v-63.4C1178.8,534.1,1128.4,544.4,1066.2,544.4z"/>
			<path class="st3" d="M1066.2,609.5c-40.2,0-77.8-4.4-98-11.5c-10.8-3.8-16.2-8.2-16.2-13v-63.4c0-0.9,0.7-1.7,1.7-1.7
				s1.7,0.7,1.7,1.7c0,10.1,45.6,21.3,111,21.3s111-11.2,111-21.3c0-0.9,0.7-1.7,1.7-1.7s1.7,0.7,1.7,1.7V585c0,4.9-5.5,9.2-16.2,13
				C1144,605.1,1106.4,609.5,1066.2,609.5z M955.3,527.8V585c0,3.2,5.1,6.8,14,9.9c19.9,7,57.1,11.4,96.9,11.4s77-4.4,96.9-11.4
				c8.9-3.1,14-6.7,14-9.9v-57.2c-13.2,11.9-63.3,18.3-111,18.3C1018.6,546,968.4,539.7,955.3,527.8z"/>
		</g>
		<g>
			<path class="st0" d="M968.7,682.8c-9.6,3.4-15.1,7.3-15.1,11.5c0,12.7,50.4,22.9,112.6,22.9s112.6-10.3,112.6-22.9
				c0-4.2-5.5-8.1-15.1-11.5c-19.5,6.8-55.8,11.5-97.5,11.5C1024.6,694.2,988.2,689.6,968.7,682.8z"/>
			<path class="st3" d="M1066.2,718.8c-55.4,0-114.3-8.6-114.3-24.6c0-4.9,5.5-9.2,16.2-13c0.4-0.1,0.7-0.1,1.1,0
				c19.9,7,57.1,11.4,96.9,11.4c39.9,0,77-4.4,96.9-11.4c0.4-0.1,0.7-0.1,1.1,0c10.8,3.8,16.2,8.2,16.2,13
				C1180.5,710.2,1121.6,718.8,1066.2,718.8z M968.8,684.5c-8.6,3.1-13.5,6.6-13.5,9.7c0,10.1,45.6,21.3,111,21.3s111-11.2,111-21.3
				c0-3.1-4.9-6.6-13.5-9.7c-20.4,7-57.6,11.4-97.5,11.4C1026.4,695.9,989.1,691.5,968.8,684.5z"/>
		</g>
		<g>
			<path class="st0" d="M1066.2,630.8c-62.2,0-112.6-10.3-112.6-22.9v63.4c0,4.2,5.5,8.1,15.1,11.5c19.5,6.8,55.8,11.5,97.5,11.5
				s78-4.6,97.5-11.5c9.6-3.4,15.1-7.3,15.1-11.5v-63.4C1178.8,620.5,1128.4,630.8,1066.2,630.8z"/>
			<path class="st3" d="M1066.2,695.9c-40.2,0-77.8-4.4-98-11.5c-10.8-3.8-16.2-8.2-16.2-13V608c0-0.9,0.7-1.7,1.7-1.7
				s1.7,0.7,1.7,1.7c0,10.1,45.6,21.3,111,21.3s111-11.2,111-21.3c0-0.9,0.7-1.7,1.7-1.7s1.7,0.7,1.7,1.7v63.3
				c0,4.9-5.5,9.2-16.2,13C1144,691.5,1106.4,695.9,1066.2,695.9z M955.3,614.1v57.2c0,3.2,5.1,6.8,14,9.9
				c19.9,7,57.1,11.4,96.9,11.4c39.9,0,77-4.4,96.9-11.4c8.9-3.1,14-6.7,14-9.9v-57.2c-13.2,11.9-63.3,18.3-111,18.3
				C1018.6,632.4,968.4,626.1,955.3,614.1z"/>
		</g>
		<g>
			<path class="st0" d="M1066.2,717.2c-62.2,0-112.6-10.3-112.6-22.9v63.4c0,12.7,50.4,22.9,112.6,22.9s112.6-10.3,112.6-22.9v-63.4
				C1178.8,706.9,1128.4,717.2,1066.2,717.2z"/>
			<path class="st3" d="M1066.2,782.3c-55.4,0-114.3-8.6-114.3-24.6v-63.4c0-0.9,0.7-1.7,1.7-1.7s1.7,0.7,1.7,1.7
				c0,10.1,45.6,21.3,111,21.3s111-11.2,111-21.3c0-0.9,0.7-1.7,1.7-1.7s1.7,0.7,1.7,1.7v63.4
				C1180.5,773.6,1121.6,782.3,1066.2,782.3z M955.3,700.5v57.2c0,10.1,45.6,21.3,111,21.3s111-11.2,111-21.3v-57.2
				c-13.2,11.9-63.3,18.3-111,18.3S968.4,712.5,955.3,700.5z"/>
		</g>
	</g>
	<g>
		<g>
			<path class="st0" d="M905.2,761.3c0-20.4,16.6-37,37-37v-57.8h-23.3l-35-25.1L852,664.8l3,102.6c0,0-0.5,92.9,87.2,92.9v-62
				C921.8,798.3,905.2,781.7,905.2,761.3z"/>
			<path d="M942.2,861.9c-25.5,0-46.1-7.7-61.3-23c-27.5-27.7-27.6-71.1-27.6-71.6l-3-102.5c0-0.5,0.2-1.1,0.7-1.4l31.9-23.4
				c0.6-0.4,1.4-0.4,1.9,0l34.6,24.8h22.8c0.9,0,1.7,0.7,1.7,1.7v57.8c0,0.9-0.7,1.7-1.7,1.7c-19.5,0-35.3,15.9-35.3,35.3
				c0,19.5,15.9,35.4,35.3,35.4c0.9,0,1.7,0.7,1.7,1.7v62C943.9,861.2,943.1,861.9,942.2,861.9z M853.7,665.6l3,101.7
				c0,0.5,0.1,42.6,26.6,69.3c14.2,14.3,33.5,21.7,57.2,22v-58.7c-20.6-0.9-37-17.9-37-38.6c0-20.8,16.5-37.8,37-38.6v-54.5h-21.7
				c-0.3,0-0.7-0.1-1-0.3l-34-24.4L853.7,665.6z"/>
		</g>
		<g>
			<path class="st0" d="M1032.4,664.7l-31.8-23.4l-35,25.1h-23.3l0,0v57.8c20.4,0,37,16.6,37,37s-16.6,37-37,37v62l0,0
				c87.7,0,87.2-92.9,87.2-92.9L1032.4,664.7z"/>
			<path d="M942.2,861.9c-0.9,0-1.7-0.7-1.7-1.7v-62c0-0.9,0.7-1.7,1.7-1.7c19.5,0,35.3-15.9,35.3-35.4s-15.9-35.3-35.3-35.3
				c-0.9,0-1.7-0.7-1.7-1.7v-57.8c0-0.9,0.7-1.7,1.7-1.7H965l34.6-24.8c0.6-0.4,1.4-0.4,1.9,0l31.8,23.4c0.4,0.3,0.7,0.8,0.7,1.4
				l-3,102.6c0,0.4-0.1,43.8-27.6,71.5C988.3,854.2,967.7,861.9,942.2,861.9z M943.9,799.9v58.7c23.8-0.3,43-7.7,57.3-22
				c26.6-26.7,26.6-68.8,26.6-69.2l3-101.8l-30.2-22.2l-34,24.4c-0.3,0.2-0.6,0.3-1,0.3h-21.7v54.5c20.6,0.9,37,17.9,37,38.6
				C980.9,782,964.4,799,943.9,799.9z"/>
		</g>
		<g>
			<path class="st0" d="M905.2,761.3c0,20.4,16.6,37,37,37s37-16.6,37-37s-16.6-37-37-37C921.8,724.2,905.2,740.8,905.2,761.3z"/>
			<path d="M942.2,799.9c-21.3,0-38.7-17.3-38.7-38.7c0-21.3,17.3-38.7,38.7-38.7c21.3,0,38.7,17.3,38.7,38.7
				S963.5,799.9,942.2,799.9z M942.2,725.9c-19.5,0-35.3,15.9-35.3,35.3c0,19.5,15.9,35.4,35.3,35.4c19.5,0,35.3-15.9,35.3-35.4
				C977.5,741.8,961.7,725.9,942.2,725.9z"/>
		</g>
	</g>
	<g>
		<path class="st0" d="M794.2,780.6c0,22-17.8,39.8-39.8,39.8H547.8c-22,0-39.8-17.8-39.8-39.8l0,0c0-22,17.8-39.8,39.8-39.8h206.7
			C776.4,740.8,794.2,758.6,794.2,780.6L794.2,780.6z"/>
		<path d="M754.4,822H547.8c-22.8,0-41.4-18.6-41.4-41.4c0-22.8,18.6-41.4,41.4-41.4h206.7c22.8,0,41.4,18.6,41.4,41.4
			C795.9,803.5,777.3,822,754.4,822z M547.8,742.5c-21,0-38.1,17.1-38.1,38.1s17.1,38.1,38.1,38.1h206.7c21,0,38.1-17.1,38.1-38.1
			s-17.1-38.1-38.1-38.1H547.8z"/>
	</g>
	<g>
		<g>
			<path class="st0" d="M568,774.7c0,8.3-6.7,15-15,15l0,0c-8.3,0-15-6.7-15-15l0,0c0-8.3,6.7-15,15-15l0,0
				C561.3,759.7,568,766.4,568,774.7L568,774.7z"/>
			<path d="M553,791.4c-9.2,0-16.7-7.5-16.7-16.7S543.8,758,553,758s16.7,7.5,16.7,16.7S562.2,791.4,553,791.4z M553,761.4
				c-7.4,0-13.4,6-13.4,13.4s6,13.4,13.4,13.4s13.4-6,13.4-13.4C566.4,767.4,560.4,761.4,553,761.4z"/>
		</g>
		<g>
			<path d="M527.5,803.1c-0.4,0-0.8-0.2-1.2-0.5c-0.6-0.6-0.6-1.7,0-2.3l15.6-15.6c0.6-0.6,1.7-0.6,2.3,0s0.6,1.7,0,2.3l-15.6,15.6
				C528.3,803,527.9,803.1,527.5,803.1z"/>
		</g>
	</g>
</g>
<text transform="matrix(1 0 0 1 341.0582 63.3162)"><tspan x="0" y="0" class="st4 st5 st6">APPLIED DATA </tspan><tspan x="124.2" y="86.4" class="st4 st5 st6">SCIENCE</tspan></text>
</svg>
