<?xml version="1.0" encoding="utf-8"?>
<!-- Generator: Adobe Illustrator 27.7.0, SVG Export Plug-In . SVG Version: 6.00 Build 0)  -->
<svg version="1.1" id="Layer_1" xmlns="http://www.w3.org/2000/svg" xmlns:xlink="http://www.w3.org/1999/xlink" x="0px" y="0px"
	 viewBox="0 0 510.9 511.9" style="enable-background:new 0 0 510.9 511.9;" xml:space="preserve">
<style type="text/css">
	.st0{fill:#90A8EB;}
	.st1{fill:#9CB8FF;}
	.st2{fill:#FFFFFF;}
</style>
<g>
	<g>
		<path class="st0" d="M339.8,89.7l0.8-0.5L482,141.8c-12.8-25.4-29.8-48.3-50-68C386.5,29.7,324.5,2.5,256.2,2.3
			C289.4,25.6,317.9,55.3,339.8,89.7z"/>
		<path d="M482,143.4c-0.2,0-0.4,0-0.6-0.1L340.8,91l-0.1,0.1c-0.8,0.5-1.8,0.2-2.2-0.5C316.6,56.3,288.6,27,255.2,3.7
			c-0.6-0.4-0.8-1.2-0.6-1.9s0.9-1,1.6-1.2c66.4,0.2,129.2,25.8,177,72c20.4,19.8,37.3,42.7,50.2,68c0.3,0.3,0.4,0.7,0.4,1.1
			C483.7,142.7,483,143.5,482,143.4L482,143.4z M340.6,87.6c0.2,0,0.4,0,0.6,0.1l137.3,51C466,115.1,450,93.6,430.7,75
			C384.9,30.6,324.9,5.5,261.3,4c31.4,22.8,58,50.9,79.1,83.6C340.5,87.6,340.6,87.6,340.6,87.6z"/>
	</g>
	<g>
		<path class="st1" d="M339.8,89.7c4.9,7.6,9.4,15.5,13.6,23.5c22.3,42.7,34.9,91.3,34.9,142.8h120.8c0-41.1-9.8-79.9-27.2-114.2
			L340.5,89.2L339.8,89.7z"/>
		<path d="M509.1,257.7H388.4c-0.9,0-1.7-0.7-1.7-1.7c0-50-11.7-97.8-34.7-142c-4.1-7.9-8.6-15.7-13.5-23.4
			c-0.2-0.4-0.3-0.8-0.2-1.3s0.4-0.8,0.8-1l0.8-0.5c0.4-0.3,0.9-0.3,1.4-0.1l141.4,52.6c0.4,0.1,0.7,0.4,0.9,0.8
			c18.1,35.9,27.3,74.6,27.3,115C510.8,256.9,510.1,257.7,509.1,257.7z M390,254.4h117.5c-0.2-39.1-9.2-76.5-26.7-111.2L343.2,92
			c4.2,6.7,8.1,13.6,11.7,20.5C377.9,156.6,389.8,204.4,390,254.4z"/>
	</g>
	<g>
		<path class="st1" d="M171,89.7c21.9-34.3,50.4-64.1,83.7-87.4C186.4,2.5,124.4,29.7,78.9,73.8c-20.2,19.6-37.2,42.6-50,68
			l141.4-52.6L171,89.7z"/>
		<path d="M28.8,143.4c-0.5,0-0.9-0.2-1.2-0.6c-0.5-0.5-0.6-1.2-0.2-1.9c12.9-25.5,29.8-48.5,50.4-68.4c47.7-46.2,110.6-71.8,177-72
			l0,0c0.7,0,1.4,0.5,1.6,1.2c0.2,0.7,0,1.4-0.6,1.9c-33.4,23.4-61.4,52.6-83.3,86.9c-0.5,0.8-1.5,1-2.2,0.5l-0.1-0.1L29.6,143.2
			C29.2,143.4,29,143.4,28.8,143.4z M249.4,4C185.8,5.5,125.9,30.6,80,75c-19.2,18.7-35.3,40.1-47.8,63.7l137.4-51
			c0.2-0.1,0.5-0.1,0.7-0.1C191.4,54.9,218,26.8,249.4,4z"/>
	</g>
	<g>
		<path class="st0" d="M157.4,113.2c4.2-8.1,8.7-15.9,13.6-23.5l-0.8-0.5L28.8,141.8C11.4,176.1,1.6,214.9,1.6,256h120.8
			C122.4,204.5,135.1,155.9,157.4,113.2z"/>
		<path d="M122.4,257.7H1.7C0.8,257.7,0,257,0,256c0-40.4,9.2-79.1,27.3-115c0.2-0.4,0.5-0.7,0.9-0.8l141.4-52.5
			c0.5-0.2,1-0.1,1.4,0.1l0.8,0.5c0.4,0.2,0.7,0.6,0.8,1s0,0.9-0.2,1.3c-4.9,7.7-9.4,15.5-13.5,23.4c-23,44.2-34.7,92-34.7,142
			C124.1,256.9,123.3,257.7,122.4,257.7z M3.3,254.4h117.5c0.3-49.9,12.1-97.7,35.1-141.9c3.6-6.9,7.5-13.8,11.7-20.5L30,143.1
			C12.5,177.9,3.6,215.3,3.3,254.4z"/>
	</g>
	<g>
		<path class="st1" d="M256.1,2.3c-0.2-0.2-0.5-0.3-0.7-0.5c-0.2,0.2-0.5,0.3-0.7,0.5c0.2,0,0.5,0,0.7,0S255.9,2.3,256.1,2.3z"/>
		<path d="M256.1,3.9h-1h-0.4c-0.7,0-1.4-0.5-1.6-1.2c-0.2-0.7,0-1.4,0.6-1.9l0.7-0.5c0.6-0.4,1.4-0.4,1.9,0l0.7,0.5
			c0.6,0.4,0.8,1.2,0.6,1.9C257.5,3.5,256.8,3.9,256.1,3.9z"/>
	</g>
	<g>
		<path class="st0" d="M171,89.7l84.4,50.2v-10.7V2.3c-0.2,0-0.5,0-0.7,0C221.4,25.6,192.9,55.3,171,89.7z"/>
		<path d="M255.4,141.5c-0.3,0-0.6-0.1-0.8-0.2l-84.4-50.2c-0.4-0.2-0.7-0.6-0.8-1s0-0.9,0.2-1.3c22.1-34.7,50.4-64.2,84.2-87.9
			c0.3-0.2,0.6-0.3,1-0.3h0.7c0.9,0,1.7,0.7,1.7,1.7v137.6c0,0.6-0.3,1.1-0.8,1.4C256,141.4,255.7,141.5,255.4,141.5z M173.3,89.1
			l80.4,47.8V4.9C221.7,27.8,194.6,56.1,173.3,89.1z"/>
	</g>
	<g>
		<path class="st1" d="M255.4,139.8L171,89.7c-4.9,7.6-9.4,15.5-13.6,23.5c-22.3,42.7-34.9,91.3-34.9,142.8h133L255.4,139.8
			L255.4,139.8z"/>
		<path d="M255.4,257.7h-133c-0.9,0-1.7-0.7-1.7-1.7c0-50.6,11.8-98.9,35.1-143.6c4.1-8,8.7-15.9,13.7-23.7c0.5-0.8,1.5-1,2.2-0.5
			l84.4,50.2c0.5,0.3,0.8,0.8,0.8,1.4V256C257,256.9,256.3,257.7,255.4,257.7z M124.1,254.4h129.6V140.8l-82.2-48.9
			c-4.6,7.2-8.8,14.6-12.7,22C136,157.7,124.3,204.9,124.1,254.4z"/>
	</g>
	<g>
		<path class="st0" d="M339.8,89.7l-84.4,50.2l0,0v116.2h133c0-51.5-12.6-100.1-34.9-142.8C349.2,105.1,344.7,97.3,339.8,89.7z"/>
		<path d="M388.4,257.7h-133c-0.9,0-1.7-0.7-1.7-1.7V139.8c0-0.6,0.3-1.1,0.8-1.4l84.4-50.2c0.8-0.5,1.8-0.2,2.2,0.5
			c4.9,7.7,9.5,15.7,13.7,23.6c23.3,44.7,35.1,93,35.1,143.6C390,256.9,389.3,257.7,388.4,257.7z M257,254.4h129.7
			C386.4,205,374.8,157.7,352,114c-3.9-7.4-8.1-14.8-12.7-22L257,140.8V254.4z"/>
	</g>
	<g>
		<path class="st1" d="M255.4,129.1v10.7l0,0l84.4-50.2c-21.9-34.3-50.4-64.1-83.7-87.4c-0.2,0-0.5,0-0.7,0V129.1z"/>
		<path d="M255.4,141.5c-0.3,0-0.6-0.1-0.8-0.2c-0.5-0.3-0.8-0.8-0.8-1.4V2.3c0-0.9,0.7-1.7,1.7-1.7h0.4c0.3,0,1,0.1,1.2,0.3
			c33.7,23.6,62,53.2,84.2,87.9c0.2,0.4,0.3,0.8,0.2,1.3c-0.1,0.4-0.4,0.8-0.8,1l-84.4,50.2C256,141.4,255.7,141.5,255.4,141.5z
			 M257,5v132l80.5-47.8C316.2,56.1,289.1,27.8,257,5z"/>
	</g>
	<g>
		<path class="st0" d="M388.4,256c0,51.5-12.6,100.1-34.9,142.8c-4.2,8.1-8.7,15.9-13.6,23.5l0.8,0.5L482,370.2
			c17.4-34.3,27.2-73.1,27.2-114.2L388.4,256L388.4,256z"/>
		<path d="M340.6,424.5c-0.3,0-0.6-0.1-0.8-0.2l-0.8-0.5c-0.4-0.2-0.7-0.6-0.8-1s0-0.9,0.2-1.3c4.9-7.7,9.4-15.5,13.5-23.4
			c23.1-44.2,34.7-92,34.7-142c0-0.9,0.7-1.7,1.7-1.7h120.8c0.9,0,1.7,0.7,1.7,1.7c0,40.4-9.2,79.1-27.3,115
			c-0.2,0.4-0.5,0.7-0.9,0.8l-141.4,52.6C341,424.4,340.8,424.5,340.6,424.5z M390,257.7c-0.3,50-12.1,97.7-35.1,141.9
			c-3.6,6.9-7.5,13.8-11.7,20.5l137.6-51.2c17.5-34.8,26.4-72.2,26.7-111.2L390,257.7L390,257.7z"/>
	</g>
	<g>
		<path class="st1" d="M339.8,422.3c-21.9,34.3-50.4,64.1-83.7,87.4c68.4-0.2,130.3-27.4,175.8-71.6c20.2-19.6,37.2-42.5,50-67.9
			l-141.4,52.6L339.8,422.3z"/>
		<path d="M256.1,511.4c-0.7,0-1.4-0.5-1.6-1.2c-0.2-0.7,0-1.4,0.6-1.9c33.4-23.4,61.4-52.6,83.3-86.9c0.5-0.8,1.5-1,2.2-0.5
			l0.1,0.1l140.7-52.3c0.6-0.2,1.4-0.1,1.8,0.5c0.5,0.5,0.5,1.2,0.2,1.9c-12.9,25.5-29.8,48.5-50.4,68.4
			C385.4,485.6,322.5,511.2,256.1,511.4L256.1,511.4z M340.4,424.5c-21.1,32.7-47.6,60.8-79.1,83.5c63.6-1.5,123.6-26.6,169.4-71
			c19.2-18.6,35.3-40.1,47.8-63.7l-137.3,51.1C340.9,424.5,340.7,424.5,340.4,424.5z"/>
	</g>
	<g>
		<path class="st0" d="M171,422.3l-0.8,0.5L28.9,370.2c12.8,25.4,29.8,48.3,50,67.9c45.5,44.1,107.5,71.4,175.8,71.6
			C221.4,486.4,192.9,456.7,171,422.3z"/>
		<path d="M254.7,511.4L254.7,511.4c-66.4-0.2-129.3-25.8-177-72c-20.5-19.9-37.5-42.9-50.4-68.4c-0.3-0.6-0.2-1.3,0.2-1.9
			c0.5-0.5,1.2-0.7,1.8-0.4L170,421l0.1-0.1c0.8-0.5,1.8-0.2,2.2,0.5c21.9,34.3,49.9,63.6,83.3,86.9c0.6,0.4,0.8,1.2,0.6,1.9
			C256,510.9,255.4,511.4,254.7,511.4z M32.3,373.3c12.5,23.6,28.5,45,47.7,63.7c45.8,44.4,105.8,69.5,169.4,71
			c-31.4-22.8-58-50.9-79-83.5c-0.3,0-0.5,0-0.8-0.1L32.3,373.3z"/>
	</g>
	<g>
		<path class="st1" d="M171,422.3c-4.9-7.6-9.4-15.5-13.6-23.5c-22.3-42.7-34.9-91.3-34.9-142.8H1.7c0,41.1,9.8,79.9,27.2,114.2
			l141.3,52.6L171,422.3z"/>
		<path d="M170.2,424.5c-0.2,0-0.4,0-0.6-0.1L28.3,371.8c-0.4-0.1-0.7-0.4-0.9-0.8C9.2,335.1,0,296.4,0,256c0-0.9,0.7-1.7,1.7-1.7
			h120.8c0.9,0,1.7,0.7,1.7,1.7c0,50,11.7,97.8,34.7,142c4.1,7.9,8.7,15.8,13.5,23.4c0.2,0.4,0.3,0.8,0.2,1.3
			c-0.1,0.4-0.4,0.8-0.8,1l-0.8,0.5C170.8,424.4,170.5,424.5,170.2,424.5z M30,368.9l137.6,51.2c-4.2-6.7-8.1-13.6-11.7-20.5
			c-23-44.2-34.9-92-35.1-141.9H3.3C3.6,296.8,12.5,334.2,30,368.9z"/>
	</g>
	<g>
		<path class="st1" d="M254.7,509.7c0.2,0.2,0.5,0.3,0.7,0.5c0.2-0.2,0.5-0.3,0.7-0.5c-0.2,0-0.5,0-0.7,0S254.9,509.7,254.7,509.7z"
			/>
		<path d="M255.4,511.9c-0.3,0-0.7-0.1-0.9-0.3l-0.7-0.5c-0.6-0.4-0.9-1.2-0.7-1.9s0.9-1.2,1.6-1.2h1h0.4c0.7,0,1.4,0.5,1.6,1.2
			c0.2,0.7,0,1.4-0.6,1.9l-0.7,0.5C256,511.8,255.7,511.9,255.4,511.9z"/>
	</g>
	<g>
		<path class="st0" d="M122.4,256c0,51.5,12.7,100.1,34.9,142.8c4.2,8.1,8.7,15.9,13.6,23.5l84.4-50.2V256H122.4z"/>
		<path d="M171,424c-0.5,0-1.1-0.3-1.4-0.8c-4.9-7.7-9.5-15.7-13.7-23.7c-23.3-44.7-35.1-93-35.1-143.6c0-0.9,0.7-1.7,1.7-1.7h133
			c0.9,0,1.7,0.7,1.7,1.7v116.2c0,0.6-0.3,1.1-0.8,1.4L172,423.7C171.5,423.9,171.3,424,171,424z M124.1,257.7
			c0.3,49.4,11.9,96.6,34.7,140.4c3.9,7.4,8.1,14.8,12.7,22l82.2-48.9V257.7H124.1z"/>
	</g>
	<g>
		<path class="st1" d="M255.4,382.9v-10.7L171,422.3c21.9,34.3,50.4,64.1,83.7,87.4c0.2,0,0.5,0,0.7,0V382.9z"/>
		<path d="M255.4,511.4H255c-0.3,0-1-0.1-1.3-0.3c-33.7-23.6-62-53.2-84.2-87.9c-0.2-0.4-0.3-0.8-0.2-1.3c0.1-0.4,0.4-0.8,0.8-1
			l84.4-50.2c0.5-0.3,1.1-0.3,1.7,0c0.5,0.3,0.8,0.8,0.8,1.4v137.6C257,510.7,256.3,511.4,255.4,511.4z M173.3,422.9
			c21.3,33,48.4,61.3,80.4,84.1V375.1L173.3,422.9z"/>
	</g>
	<g>
		<path class="st0" d="M339.8,422.3l-84.4-50.2l0,0v10.7v126.9c0.2,0,0.5,0,0.7,0C289.4,486.4,317.9,456.7,339.8,422.3z"/>
		<path d="M255.4,511.4c-0.9,0-1.7-0.7-1.7-1.7V372.2c0-0.5,0.2-1,0.7-1.3c0.5-0.4,1.3-0.5,1.9-0.1l84.4,50.2c0.4,0.2,0.7,0.6,0.8,1
			s0,0.9-0.2,1.3c-22.1,34.7-50.5,64.3-84.2,87.9c-0.3,0.2-0.6,0.3-0.9,0.3L255.4,511.4z M257,375.1V507
			c32.1-22.8,59.1-51.1,80.5-84.1L257,375.1z"/>
	</g>
	<g>
		<path class="st1" d="M255.4,372.2L255.4,372.2l84.4,50.2c4.9-7.6,9.4-15.5,13.6-23.5c22.3-42.7,34.9-91.3,34.9-142.8h-133
			L255.4,372.2L255.4,372.2z"/>
		<path d="M339.8,424c-0.3,0-0.6-0.1-0.8-0.2l-84.3-50.1l0,0c-0.6-0.3-0.9-0.8-0.9-1.5V256c0-0.9,0.7-1.7,1.7-1.7h133
			c0.9,0,1.7,0.7,1.7,1.7c0,50.6-11.8,98.9-35.1,143.6c-4.1,7.9-8.7,15.9-13.7,23.7C340.9,423.7,340.4,424,339.8,424z M257,371.2
			l82.2,48.9c4.6-7.2,8.8-14.6,12.7-22c22.8-43.7,34.5-91,34.7-140.4H257V371.2z"/>
	</g>
</g>
<g>
	<circle class="st2" cx="28.8" cy="141.8" r="24.1"/>
	<path d="M28.8,167.5c-14.2,0-25.7-11.5-25.7-25.7s11.5-25.7,25.7-25.7s25.7,11.5,25.7,25.7C54.6,156,43,167.5,28.8,167.5z
		 M28.8,119.4c-12.4,0-22.4,10.1-22.4,22.4s10.1,22.4,22.4,22.4s22.4-10.1,22.4-22.4S41.2,119.4,28.8,119.4z"/>
</g>
<g>
	<circle class="st2" cx="28.8" cy="370.2" r="24.1"/>
	<path d="M28.8,396c-14.2,0-25.7-11.5-25.7-25.7s11.5-25.7,25.7-25.7s25.7,11.5,25.7,25.7S43,396,28.8,396z M28.8,347.8
		c-12.4,0-22.4,10.1-22.4,22.4c0,12.4,10.1,22.4,22.4,22.4s22.4-10.1,22.4-22.4S41.2,347.8,28.8,347.8z"/>
</g>
<g>
	<path class="st2" d="M278.8,139.8c0,13.3-10.8,24.1-24.1,24.1s-24.1-10.8-24.1-24.1c0-13.3,10.8-24.1,24.1-24.1
		C268,115.8,278.8,126.5,278.8,139.8z"/>
	<path d="M254.7,165.6c-14.2,0-25.7-11.5-25.7-25.7s11.5-25.7,25.7-25.7s25.7,11.5,25.7,25.7C280.4,154,268.9,165.6,254.7,165.6z
		 M254.7,117.4c-12.4,0-22.4,10.1-22.4,22.4c0,12.4,10.1,22.4,22.4,22.4c12.4,0,22.4-10.1,22.4-22.4S267,117.4,254.7,117.4z"/>
</g>
<g>
	<circle class="st2" cx="254.7" cy="372.2" r="24.1"/>
	<path d="M254.7,397.9c-14.2,0-25.7-11.5-25.7-25.7s11.5-25.7,25.7-25.7s25.7,11.5,25.7,25.7S268.9,397.9,254.7,397.9z M254.7,349.8
		c-12.4,0-22.4,10.1-22.4,22.4c0,12.4,10.1,22.4,22.4,22.4c12.4,0,22.4-10.1,22.4-22.4C277.1,359.8,267,349.8,254.7,349.8z"/>
</g>
<g>
	<circle class="st2" cx="480.7" cy="141.8" r="24.1"/>
	<path d="M480.7,167.5c-14.2,0-25.7-11.5-25.7-25.7s11.5-25.7,25.7-25.7s25.7,11.5,25.7,25.7C506.5,156,494.9,167.5,480.7,167.5z
		 M480.7,119.4c-12.4,0-22.4,10.1-22.4,22.4c0,12.4,10.1,22.4,22.4,22.4c12.4,0,22.4-10.1,22.4-22.4
		C503.2,129.4,493.1,119.4,480.7,119.4z"/>
</g>
<g>
	<path class="st2" d="M411.2,256c0,13.3-10.8,24.1-24.1,24.1S363,269.3,363,256c0-13.3,10.8-24.1,24.1-24.1S411.2,242.7,411.2,256z"
		/>
	<path d="M387.1,281.8c-14.2,0-25.7-11.5-25.7-25.7s11.5-25.7,25.7-25.7s25.7,11.5,25.7,25.7C412.9,270.2,401.3,281.8,387.1,281.8z
		 M387.1,233.6c-12.4,0-22.4,10.1-22.4,22.4c0,12.4,10.1,22.4,22.4,22.4c12.4,0,22.4-10.1,22.4-22.4
		C409.6,243.7,399.5,233.6,387.1,233.6z"/>
</g>
<g>
	<path class="st2" d="M146.5,256c0,13.3-10.8,24.1-24.1,24.1S98.3,269.3,98.3,256c0-13.3,10.8-24.1,24.1-24.1S146.5,242.7,146.5,256
		z"/>
	<path d="M122.4,281.8c-14.2,0-25.7-11.5-25.7-25.7s11.5-25.7,25.7-25.7s25.7,11.5,25.7,25.7C148.2,270.2,136.6,281.8,122.4,281.8z
		 M122.4,233.6c-12.4,0-22.4,10.1-22.4,22.4c0,12.4,10.1,22.4,22.4,22.4s22.4-10.1,22.4-22.4C144.9,243.7,134.8,233.6,122.4,233.6z"
		/>
</g>
<g>
	<circle class="st2" cx="480.7" cy="370.2" r="24.1"/>
	<path d="M480.7,396c-14.2,0-25.7-11.5-25.7-25.7s11.5-25.7,25.7-25.7s25.7,11.5,25.7,25.7S494.9,396,480.7,396z M480.7,347.8
		c-12.4,0-22.4,10.1-22.4,22.4c0,12.4,10.1,22.4,22.4,22.4c12.4,0,22.4-10.1,22.4-22.4C503.2,357.9,493.1,347.8,480.7,347.8z"/>
</g>
</svg>
